# xmcd
#
# Track frame offsets:
#	150
#	13655
#	30892
#	47164
#	61685
#	79980
#	95260
#	110835
#	126077
#	140050
#	152920
#	168722
#	182520
#	197515
#	211287
#	226717
#
# Disc length: 3204 seconds
#
# Revision: 1
# Processed by: cddbd v1.5.1PL0 Copyright (c) Steve Scherf et al.
# Submitted via: audiograbber 1.82.01
#
DISCID=d00c8210
DTITLE=Alan and Aladin - Valeu Enquanto Durou
DYEAR=2004
DGENRE=Sertanejo
TTITLE0=Paixão Mal Curada
TTITLE1=A Hora da Despedida
TTITLE2=Valeu Enuanto Durou
TTITLE3=Cerveja no Gogó
TTITLE4=I Love You Baby
TTITLE5=Quero Dizer Te Amo
TTITLE6=Muié e Mé
TTITLE7=Me Dá Uma Chance
TTITLE8=Segura o Pinto
TTITLE9=Moda, Mulher e Bebida
TTITLE10=Último Adeus
TTITLE11=Do Outro Lado da Cidade
TTITLE12=Hoje Eu Não Posso Ir
TTITLE13=Negue
TTITLE14=Dois Passarinhos ( Acústico )
TTITLE15=Liguei Pra Dizer Que Te Amo ( Acústico )
EXTD=
EXTT0=
EXTT1=
EXTT2=
EXTT3=
EXTT4=
EXTT5=
EXTT6=
EXTT7=
EXTT8=
EXTT9=
EXTT10=
EXTT11=
EXTT12=
EXTT13=
EXTT14=
EXTT15=
PLAYORDER=
